<svg width="77" height="55" viewBox="0 0 77 55" fill="none" xmlns="http://www.w3.org/2000/svg">
<g clip-path="url(#clip0)">
<path d="M15.8953 49.1192C15.8953 50.5894 15.9193 51.7945 15.8953 52.9754C15.8712 54.2046 15.3662 54.7831 14.1398 54.7831C10.0037 54.8072 5.89155 54.8072 1.75538 54.7831C0.52896 54.7831 0.0239629 54.2046 0.0239629 52.9754C0.0239629 44.5399 -8.45604e-05 36.1043 0.0239629 27.6687C0.0239629 26.319 0.601102 25.8129 2.09205 25.8129C5.29036 25.7888 8.51272 25.7647 11.711 25.8129C12.6729 25.837 12.9375 25.4996 12.9375 24.5596C12.9134 19.5464 12.9134 14.5333 12.9134 9.49605C12.9134 7.51972 13.2741 7.18229 15.222 7.15819C16.4965 7.15819 17.795 7.10999 19.0696 7.15819C19.791 7.18229 20.0796 6.91718 20.0555 6.19413C20.0315 4.79623 20.0315 3.37423 20.0555 1.97634C20.0796 0.482033 20.5605 0 22.0995 0C39.3656 0 56.6317 0 73.8978 0C75.509 0 75.9899 0.506135 75.9899 2.21735C75.9899 9.97809 75.9899 17.7147 75.9899 25.4755C75.9899 25.9816 75.9899 26.56 76.2064 26.9939C77.6252 29.8379 77.048 32.4649 75.1723 34.7546C71.2285 39.5508 67.2126 44.2989 63.0764 48.9505C60.4553 51.915 56.8722 53.3129 53.1208 54.1805C51.0286 54.6626 48.8403 54.8795 46.7001 54.9277C42.1311 55.0482 37.5621 54.8554 32.993 55C28.6405 55.1205 24.6967 54.0359 20.9453 51.8909C19.3822 50.975 17.7469 50.1315 15.8953 49.1192ZM41.9147 42.5635C38.4759 42.5635 35.013 42.5635 31.5742 42.5635C31.2135 42.5635 30.8528 42.5876 30.4921 42.5394C29.6264 42.4189 29.0733 41.961 29.0974 41.021C29.1214 40.1052 29.6985 39.6713 30.5402 39.5508C30.9009 39.5026 31.2616 39.5267 31.6223 39.5267C38.4278 39.5267 45.2573 39.5267 52.0627 39.5267C53.1689 39.5267 54.1308 39.2857 54.8041 38.3457C55.4293 37.454 55.5255 36.4899 55.0446 35.5017C54.5155 34.4172 53.5777 33.9592 52.3994 33.9833C48.4315 33.9833 44.4637 33.9351 40.4959 34.0074C38.7163 34.0315 37.2735 33.5254 35.9028 32.3444C29.6264 26.9216 20.8731 28.0061 16.4003 34.6582C16.1358 35.0679 15.9434 35.5982 15.9193 36.0802C15.8712 39.0206 15.8712 41.9369 15.9193 44.8773C15.9193 45.287 16.256 45.8655 16.6167 46.0583C18.7569 47.3116 20.9693 48.4684 23.1576 49.6253C25.7067 50.975 28.3519 51.915 31.2857 51.915C36.7445 51.915 42.1792 51.9632 47.638 51.8909C49.2251 51.8668 50.8363 51.6499 52.3753 51.2642C55.6698 50.4448 58.8441 49.2879 61.1526 46.6126C64.9762 42.1779 68.7757 37.7191 72.5271 33.2362C73.008 32.6577 73.3928 31.9829 73.6573 31.284C74.2585 29.7173 73.8978 28.44 72.7916 27.741C71.7095 27.0662 70.6033 27.2831 69.3528 28.4641C65.7698 31.8624 62.1867 35.2366 58.6036 38.635C58.2188 38.9965 57.81 39.3339 57.5215 39.7677C56.1989 41.7441 54.3472 42.5876 51.9905 42.5635C48.6479 42.5394 45.2813 42.5635 41.9147 42.5635ZM58.1467 34.8992C60.6957 32.4649 63.1245 30.1994 65.5052 27.8856C65.7457 27.6446 65.7938 27.1626 65.7938 26.7769C65.8178 24.5355 65.7698 22.2699 65.8419 20.0285C65.8659 19.2572 65.5533 18.9921 64.8559 18.8475C60.7919 17.8593 58.3631 15.2564 57.4253 11.2073C57.281 10.5324 57.0646 10.195 56.271 10.195C45.9787 10.2191 35.6864 10.2191 25.37 10.195C24.6005 10.195 24.3841 10.4601 24.2398 11.2073C23.7829 13.6656 22.5805 15.7866 20.5124 17.1604C19.1417 18.0762 17.5546 18.6306 15.9915 19.3777C15.9915 22.8484 15.9915 26.5118 15.9915 30.3681C20.7769 26.1262 26.0914 24.8488 32.1514 26.6082C31.5502 21.7879 33.1373 18.245 37.5621 16.2927C40.8085 14.8707 44.8004 15.6661 47.1811 18.3414C50.7641 22.3663 50.4034 26.6082 47.1811 30.9224C48.696 30.9224 50.0187 30.9706 51.3413 30.9224C54.3713 30.7778 56.7519 31.7901 58.1467 34.8992ZM72.9359 24.2463C72.9359 23.8365 72.9359 23.3786 72.9359 22.8966C72.9359 16.7507 72.9118 10.6047 72.9599 4.45881C72.9599 3.27783 72.6233 2.98861 71.469 3.01271C60.2869 3.06091 49.1289 3.03681 37.9468 3.03681C33.3778 3.03681 28.8088 3.03681 24.2398 3.06091C23.855 3.06091 23.1336 3.35013 23.1336 3.54294C23.0374 4.72393 23.0855 5.90491 23.0855 7.2064C23.7829 7.2064 24.2879 7.2064 24.8169 7.2064C38.7163 7.2064 52.6158 7.2064 66.5152 7.2064C68.3669 7.2064 68.7997 7.61612 68.7997 9.44785C68.7997 14.1477 68.7997 18.8475 68.7997 23.5473C68.7997 23.957 68.8478 24.3668 68.8719 24.7042C70.2666 24.5355 71.5171 24.3909 72.9359 24.2463ZM12.8172 51.7463C12.8172 44.0819 12.8172 36.5622 12.8172 28.8738C9.85938 28.8738 6.99773 28.922 4.11203 28.8497C3.15013 28.8256 2.9818 29.2112 2.9818 30.0548C3.0299 33.188 3.00585 36.3212 3.00585 39.4544C3.00585 43.1902 3.00585 46.9259 3.0299 50.6617C3.0299 51.0473 3.31847 51.7222 3.53489 51.7463C4.4487 51.8668 5.4106 51.7945 6.42059 51.7945C6.42059 50.3484 6.42059 49.0951 6.42059 47.8659C6.42059 44.9737 6.39654 42.0815 6.44464 39.1893C6.46869 37.9119 7.2863 37.1407 8.29629 37.4299C9.23414 37.695 9.42652 38.4422 9.42652 39.3098C9.42652 42.9974 9.42652 46.709 9.42652 50.3966C9.42652 50.8304 9.47462 51.2401 9.49867 51.7463C10.6529 51.7463 11.6629 51.7463 12.8172 51.7463ZM46.652 24.4873C46.652 21.2818 44.0308 18.6547 40.8325 18.6547C37.6102 18.6547 35.0371 21.2577 35.0371 24.4873C35.0371 27.6928 37.6583 30.344 40.8566 30.3199C44.0308 30.344 46.652 27.6928 46.652 24.4873ZM60.4553 10.195C60.5514 13.039 63.1967 15.7625 65.8178 15.7866C65.8178 14.1477 65.8419 12.5329 65.7938 10.894C65.7938 10.6529 65.3369 10.2432 65.0724 10.2432C63.5574 10.1709 62.0424 10.195 60.4553 10.195ZM15.9434 15.8589C18.8291 15.4733 21.2819 12.798 21.1857 10.2914C19.4543 10.2914 17.7229 10.2914 15.9434 10.2914C15.9434 12.1954 15.9434 13.979 15.9434 15.8589Z" fill="#132D55"/>
<path d="M46.6519 24.4871C46.6519 27.6927 44.0308 30.3438 40.8565 30.3438C37.6822 30.3438 35.037 27.6927 35.037 24.5112C35.037 21.2816 37.6101 18.6786 40.8325 18.6786C44.0308 18.6545 46.6519 21.2816 46.6519 24.4871Z" fill="#5DDB80"/>
<path d="M60.455 10.1951C62.0422 10.1951 63.5571 10.1709 65.0721 10.2192C65.3367 10.2192 65.7695 10.653 65.7936 10.8699C65.8657 12.5088 65.8176 14.1236 65.8176 15.7625C63.1964 15.7625 60.5512 13.039 60.455 10.1951Z" fill="#5DDB80"/>
<path d="M15.9436 15.8587C15.9436 13.9788 15.9436 12.1953 15.9436 10.2913C17.7231 10.2913 19.4546 10.2913 21.186 10.2913C21.2822 12.7978 18.8053 15.4731 15.9436 15.8587Z" fill="#5DDB80"/>
<path d="M24.4802 42.5395C23.7347 42.4431 23.1816 42.0333 23.1095 41.1175C23.0373 40.2739 23.7106 39.5268 24.5523 39.5509C25.4421 39.575 25.9711 40.0811 26.0673 40.9488C26.1395 41.7923 25.4421 42.5154 24.4802 42.5395Z" fill="#132D55"/>
<path d="M9.42631 33.3808C9.37822 34.2966 8.87322 34.8028 8.00751 34.8751C7.1899 34.9474 6.46848 34.2243 6.46848 33.3808C6.46848 32.5131 7.1418 31.8383 8.00751 31.9106C8.89727 31.9829 9.35417 32.489 9.42631 33.3808Z" fill="#132D55"/>
</g>
<defs>
<clipPath id="clip0">
<rect width="77" height="55" fill="white"/>
</clipPath>
</defs>
</svg>
