<svg width="1918" height="1698" viewBox="0 0 1918 1698" fill="none" xmlns="http://www.w3.org/2000/svg">
<path d="M-2.49194 -14C-2.49194 -14 0.63501 -8.55433 6.98962 1.32856C60.0459 83.8204 125.812 159.051 196.923 226.316C322.2 344.608 470.778 438.798 634.587 493.759C737.068 528.147 840.054 541.156 947.478 547.308C1058.33 553.56 1172.71 558.401 1275.7 604.286C1350.75 637.766 1415.4 691.416 1490.25 725.603C1636.91 792.565 1803.54 761.504 1933.05 670.844C1919.23 680.525 1933.26 816.062 1933.26 833.306C1933.26 952.304 1933.26 1071.3 1933.26 1190.4C1933.26 1304.96 1933.26 1419.42 1933.26 1533.98C1933.26 1567.36 1936.28 1602.46 1933.26 1635.74C1929.32 1678.7 1905.82 1679.5 1857.5 1689.49C1786.29 1704.21 1711.04 1699.87 1642.25 1676.18C1504.87 1628.88 1419.34 1514.82 1317.46 1419.93C1210.64 1320.39 1081.73 1244.45 942.535 1200.18C638.722 1103.57 304.851 1153.79 -3.39978 1201.19" fill="#F2F7F9"/>
</svg>
