<svg width="50" height="58" viewBox="0 0 50 58" fill="none" xmlns="http://www.w3.org/2000/svg">
<g clip-path="url(#clip0)">
<path d="M28.2175 35.3076C30.4795 25.0617 18.9662 20.6722 18.9662 20.6722C20.1537 25.1069 15.1775 31.7983 12.7911 36.2555C7.54347 46.0726 14.9852 56.6345 25.13 56.7022C17.0436 56.3185 9.38694 41.7057 22.8341 34.1454C19.4073 42.2473 26.9169 46.5917 31.2824 41.4349C36.27 46.445 31.8366 53.5765 26.5776 56.2283C40.07 50.9925 38.1022 37.6547 33.7027 30.9294C31.8027 34.1905 28.2175 35.3076 28.2175 35.3076Z" fill="white"/>
<path d="M30.8185 41.4238C26.4529 46.5919 18.9433 42.2362 22.3702 34.1343C8.93428 41.7059 16.5909 56.3187 24.6773 56.7024H24.7565C25.2202 56.5557 25.6726 56.3864 26.1137 56.2172C31.3726 53.5654 35.806 46.4452 30.8185 41.4238Z" fill="#5DDB80"/>
<path d="M49.8076 33.1075C49.785 32.5997 49.4344 32.1709 48.9481 32.058C48.4617 31.9339 47.9528 32.1596 47.704 32.5997C47.082 33.6942 44.5034 34.3036 42.2075 34.5067C44.6504 28.1199 43.6891 23.358 42.3772 20.4016C40.8164 16.8923 38.4301 15.1207 38.3396 15.053C37.9777 14.7934 37.4914 14.7596 37.1069 14.9853C36.7223 15.211 36.4961 15.6398 36.5527 16.0911C36.8015 18.2689 35.139 19.3522 34.4038 19.7133C32.7639 20.537 30.1627 20.6273 28.3079 18.8896C25.3109 16.0685 25.571 9.82847 29.0204 1.74909C29.1788 1.36543 29.1222 0.925354 28.8621 0.598117C28.602 0.27088 28.1835 0.124187 27.7764 0.191891C25.0734 0.699673 22.1668 1.72652 20.3912 2.82107C19.8596 3.14831 19.7013 3.83664 20.0293 4.36699C20.3572 4.89734 21.0471 5.05532 21.5787 4.73936C22.687 4.06232 24.3609 3.38528 26.1252 2.88878C22.0085 13.7553 24.6888 18.5736 26.7585 20.5145C29.405 22.997 33.0128 22.9067 35.4104 21.7106C36.9372 20.9433 38.0116 19.7697 38.5093 18.3705C39.0974 19.0927 39.7646 20.0631 40.3075 21.3043C42.1057 25.344 41.8117 30.0269 39.4479 35.2289C39.2896 35.5787 39.3122 35.9849 39.5271 36.3008C39.7307 36.6168 40.0926 36.8199 40.4771 36.8199C40.545 36.8199 42.2754 36.8312 44.2206 36.504C45.5552 36.2783 46.6635 35.951 47.5457 35.5222C47.0028 45.2717 40.6468 50.2479 36.711 52.4032C35.0711 53.3059 33.3294 54.0168 31.5312 54.5246C31.9383 54.2199 32.3229 53.904 32.6848 53.5654C34.4943 51.9292 35.8289 49.9545 36.6658 47.7203C36.8807 47.1335 36.5866 46.4903 35.9985 46.2759C35.4104 46.0615 34.7658 46.3549 34.5509 46.9417C34.3699 47.4156 34.1663 47.8783 33.9401 48.3184C34.5622 45.4296 33.7705 42.7666 31.6443 40.6226C31.4181 40.3969 31.1127 40.2728 30.7961 40.2954C30.4794 40.3067 30.1853 40.4534 29.9818 40.6903C28.4323 42.5296 26.3174 43.0487 24.6097 41.9993C23.0263 41.0289 21.771 38.5012 23.4335 34.5631C23.6257 34.123 23.5013 33.604 23.1507 33.288C22.7888 32.972 22.2686 32.9156 21.8501 33.1526C18.5025 35.037 16.1727 37.4518 14.9286 40.318C13.8429 42.823 13.6506 45.5989 14.3744 48.3296C14.7477 49.7401 15.3471 51.0942 16.1501 52.3242C15.1322 51.444 14.25 50.4059 13.5375 49.2324C11.2417 45.4071 11.1738 40.8709 13.3566 36.7748C13.8429 35.872 14.4423 34.8565 15.0869 33.7845C17.2584 30.1285 19.656 26.0775 19.837 22.5456C20.8209 23.0872 22.0989 23.911 23.2978 25.0168C26.3853 27.8717 27.5276 31.2569 26.6907 35.0596C26.6002 35.4545 26.7359 35.8608 27.0299 36.1316C27.324 36.4024 27.7425 36.4927 28.127 36.3798C28.2627 36.3347 31.0562 35.432 33.1711 32.9833C34.2003 34.9468 34.9241 37.1697 35.2521 39.404C35.3425 40.0246 35.908 40.4421 36.5301 40.3631C37.1521 40.2728 37.5705 39.7086 37.4914 39.088C37.039 35.9623 35.8741 32.8479 34.2116 30.309C33.9967 29.9818 33.6235 29.7899 33.2389 29.8012C32.8431 29.8125 32.4925 30.0269 32.2889 30.3654C31.452 31.8098 30.208 32.7915 29.1901 33.4121C29.3937 29.6433 27.8895 26.1903 24.768 23.3355C22.0424 20.8417 19.0566 19.6794 18.9322 19.6343C18.5364 19.4876 18.084 19.5666 17.7786 19.8487C17.462 20.1308 17.3376 20.5709 17.4394 20.9771C18.265 24.0351 15.4149 28.8195 13.1417 32.6561C12.4857 33.7506 11.875 34.7888 11.3661 35.7366C8.79878 40.5436 8.87794 45.8923 11.6036 50.4172C12.2708 51.523 13.0738 52.5273 13.9786 53.4187C12.9494 52.9448 11.9542 52.3806 11.0268 51.7487C4.80647 47.4833 1.84334 40.1713 2.55585 31.0086C4.32015 32.6899 7.00054 34.9468 8.88925 35.274C9.23985 35.3304 9.60176 35.2289 9.86189 34.9806C10.122 34.7324 10.2464 34.3825 10.2012 34.0327C10.1786 33.8861 8.53865 19.1491 15.8221 9.74948C16.2066 9.25298 16.1161 8.55337 15.6185 8.16971C15.1209 7.78605 14.4197 7.87633 14.0351 8.37282C9.91843 13.6876 8.48211 20.458 8.0071 25.2086C7.70174 28.1989 7.73567 30.7604 7.81484 32.3966C6.10708 31.3246 3.85646 29.2032 2.51061 27.7814C2.21656 27.4654 1.76417 27.3526 1.34571 27.4767C0.927255 27.6121 0.633204 27.9619 0.565346 28.3907C-0.984077 39.5168 2.2731 48.4763 9.73748 53.5993C13.6167 56.2623 18.4007 57.7292 23.5692 57.8308C23.7501 57.8308 23.9424 57.8421 24.1234 57.8421C24.3269 57.8421 24.5305 57.8421 24.7341 57.8308C24.8246 57.8308 24.915 57.8421 25.0168 57.8421C25.096 57.8421 25.1639 57.8308 25.243 57.8195C29.6538 57.6503 34.0646 56.4541 37.808 54.4005C41.5402 52.358 44.5938 49.4693 46.6522 46.0615C48.9254 42.2588 49.9999 37.9032 49.8076 33.1075ZM20.4703 36.7748C20.3233 37.8693 20.3572 38.93 20.5947 39.9117C21.0019 41.6495 22.0085 43.0713 23.4222 43.9401C24.6662 44.6962 26.1478 44.967 27.6067 44.6849C28.749 44.4592 29.8234 43.9176 30.7734 43.0938C31.7913 44.5043 32.108 46.118 31.7235 47.9008C31.1014 50.7444 28.5907 53.7008 25.6728 55.1903C25.3335 55.3257 24.9942 55.4386 24.6323 55.5627C24.6097 55.5627 24.5758 55.5627 24.5531 55.5627C21.1037 55.2919 17.6429 51.9631 16.5459 47.7767C15.9804 45.6892 15.4375 40.837 20.4703 36.7748Z" fill="#132D55" stroke="#132D55" stroke-width="0.5" stroke-miterlimit="10"/>
<path d="M35.3876 42.462V42.4846C35.365 43.1052 35.8513 43.6242 36.4734 43.6468C36.4847 43.6468 36.496 43.6468 36.5186 43.6468C37.118 43.6468 37.6269 43.1729 37.6496 42.5635V42.5297C37.6722 41.9091 37.1746 41.39 36.5525 41.3674C35.9305 41.3449 35.4103 41.8414 35.3876 42.462Z" fill="#132D55" stroke="#132D55" stroke-width="0.5" stroke-miterlimit="10"/>
<path d="M18.3332 6.59001C18.3332 7.21064 17.8243 7.71842 17.2023 7.71842C16.5802 7.71842 16.0713 7.21064 16.0713 6.59001C16.0713 5.96939 16.5802 5.46161 17.2023 5.46161C17.8356 5.46161 18.3332 5.96939 18.3332 6.59001Z" fill="black"/>
</g>
<defs>
<clipPath id="clip0">
<rect width="50" height="58" fill="white"/>
</clipPath>
</defs>
</svg>
