<svg width="45" height="45" viewBox="0 0 45 45" fill="none" xmlns="http://www.w3.org/2000/svg">
<circle cx="22.5" cy="22.5" r="22.5" fill="#699FF0"/>
<path d="M35.04 14.4861C34.0716 14.9077 33.0398 15.1872 31.964 15.3228C33.0707 14.667 33.9154 13.6364 34.3125 12.3942C33.2807 13.0048 32.1414 13.4361 30.9273 13.6768C29.9476 12.6413 28.5512 12 27.0278 12C24.0723 12 21.6929 14.3811 21.6929 17.3001C21.6929 17.7201 21.7287 18.1239 21.8166 18.5084C17.3784 18.2935 13.4512 16.1822 10.813 12.966C10.3525 13.7592 10.0823 14.667 10.0823 15.6443C10.0823 17.4794 11.0344 19.1061 12.4536 20.0478C11.5959 20.0317 10.7544 19.7845 10.0416 19.3952C10.0416 19.4114 10.0416 19.4324 10.0416 19.4534C10.0416 22.0283 11.8921 24.1671 14.3187 24.6598C13.8841 24.7777 13.4105 24.8342 12.919 24.8342C12.5772 24.8342 12.2322 24.8148 11.9083 24.7438C12.6 26.8422 14.5628 28.3848 16.8966 28.4349C15.0803 29.8452 12.7742 30.6948 10.2776 30.6948C9.83979 30.6948 9.41989 30.6755 9 30.6222C11.3648 32.1358 14.1673 33 17.1896 33C27.0132 33 32.3839 24.9231 32.3839 17.922C32.3839 17.6878 32.3758 17.4616 32.3644 17.2371C33.4239 16.4908 34.3141 15.5587 35.04 14.4861Z" fill="white"/>
</svg>
