<svg width="1920" height="1252" viewBox="0 0 1920 1252" fill="none" xmlns="http://www.w3.org/2000/svg">
<path d="M1920 23.9498C1865.4 15.5185 1771.1 7.60768 1758.6 6.67088C1619.4 -3.634 1464.9 -7.58941 1330.5 37.4814C1210 77.8682 1110.1 130.746 1010 213.393C864.4 333.721 711.8 437.81 533.3 496.205C415 534.926 291.2 555.848 167.2 557.722C113.2 558.554 59.2 555.744 5.6 549.29C3.8 549.082 1.9 548.874 0 548.666V1252C32.8 1212.76 69.7 1177.06 109.3 1145.72C270.2 1018.42 473.5 980.742 669.5 957.947C883.2 932.965 1102 935.359 1311.3 990.631C1404.6 1015.2 1495.8 1050.17 1591.1 1063.81C1702.6 1079.73 1831.9 1047.98 1919.9 972.207V23.9498H1920Z" fill="#F2F7F9"/>
</svg>
